<svg width="100" height="50" viewBox="0 0 100 50" fill="none" xmlns="http://www.w3.org/2000/svg">
<g clip-path="url(#clip0_74_118)">
<path d="M61.4286 50H65.7143V25.6755H54.2857L51.4286 50H55.7143L58.0954 29.7296H61.4286V50Z" fill="#FF0000" fill-opacity="0.75"/>
<path d="M78.5714 50H82.8571V25.6755H78.5714L72.8571 39.189V25.6755H68.5714V50H72.8571L78.5714 36.4863V50Z" fill="#FF0000" fill-opacity="0.75"/>
<path d="M95.7143 50H100V25.6755H95.7143V35.9458H90V25.6755H85.7143V50H90V39.7295H95.7143V50Z" fill="#FF0000" fill-opacity="0.75"/>
<path d="M22.1428 49.9997H26.4285V45.7346C26.8516 45.7715 27.2802 45.8038 27.7143 45.8312V49.9997H31.4286L28.5715 38.9714C27.8376 38.928 27.1233 38.8677 26.4285 38.7915V29.7296H31.4286V25.6755H19.2857L17.1429 28.3782V29.7296H22.1428V38.0673C11.1389 35.4902 6.28571 28.2307 6.28571 20.6756C6.28571 12 13.009 3.32443 28.5714 2.38179L31.4286 0C9.42852 0 3.06805e-05 11.4864 0 22.9728C0 32.6894 6.7468 42.4059 22.1428 45.1696V49.9997Z" fill="#FF0000" fill-opacity="0.75"/>
<path fill-rule="evenodd" clip-rule="evenodd" d="M48.5715 50H44.2857L43.8095 41.8917H39.0476L38.5714 50H34.2858L35.7142 25.6755H47.1428L48.5715 50ZM39.7619 29.7296H43.0952L43.5714 37.8376H39.2857L39.7619 29.7296Z" fill="#FF0000" fill-opacity="0.75"/>
<path d="M25.6515 12.1621V20.2701H24.2386V14.8648L22.8258 17.5675L21.4129 14.8648V20.2701H20V12.1621H21.4129L22.8258 14.8648L24.2386 12.1621H25.6515Z" fill="black" fill-opacity="0.75"/>
<path d="M26.2166 20.2701V12.1621H30.4553V13.5134H27.6295V15.5405H30.4553V16.8918H27.6295V18.9188H30.4553V20.2701H26.2166Z" fill="black" fill-opacity="0.75"/>
<path d="M48.2574 12.1622V20.2701H46.8445V13.5134H45.7496L44.8666 20.2702H43.4537L44.5134 12.1621L48.2574 12.1622Z" fill="black" fill-opacity="0.75"/>
<path d="M53.6263 12.1622V20.2701H52.2134V13.5134H51.1185L50.2355 20.2702H48.8226L49.8823 12.1621L53.6263 12.1622Z" fill="black" fill-opacity="0.75"/>
<path fill-rule="evenodd" clip-rule="evenodd" d="M41.4757 20.2701L41.0047 17.5675H39.1209L38.6499 20.2701H37.237L38.6499 12.1621H41.4757L42.8885 20.2701H41.4757ZM40.2983 13.5134H39.8273L39.3563 16.2161H40.7693L40.2983 13.5134Z" fill="black" fill-opacity="0.75"/>
<path fill-rule="evenodd" clip-rule="evenodd" d="M83.2966 20.2701H84.7097L83.2966 12.1621H80.4709L79.0583 20.2701H80.4709L80.9417 17.5675H82.8257L83.2966 20.2701ZM81.6486 13.5134H82.1194L82.5903 16.2161H81.1771L81.6486 13.5134Z" fill="black" fill-opacity="0.75"/>
<path d="M36.6719 13.5134V12.1621H31.0204V13.5134H33.1397V20.2701H34.5526V13.5134H36.6719Z" fill="black" fill-opacity="0.75"/>
<path d="M63.2337 20.2701H67.4726V18.9188H64.6469V16.8918H67.4726V15.5405H64.6469V13.5134H67.4726V12.1621H63.2337V20.2701Z" fill="black" fill-opacity="0.75"/>
<path d="M61.256 20.2701H62.6686V12.1621H61.256L59.8429 14.8648L58.4303 12.1621H57.0173V20.2701H58.4303V14.8648L59.8429 17.5675L61.256 14.8648V20.2701Z" fill="black" fill-opacity="0.75"/>
<path d="M90.9263 20.2701H89.5131V14.8648L88.1006 17.5675L86.6874 14.8648V20.2701H85.2749V12.1621H86.6874L88.1006 14.8648L89.5131 12.1621H90.9263V20.2701Z" fill="black" fill-opacity="0.75"/>
<path d="M73.6891 12.1621V13.5134H71.5697V20.2701H70.1571V13.5134H68.0377V12.1621H73.6891Z" fill="black" fill-opacity="0.75"/>
<path fill-rule="evenodd" clip-rule="evenodd" d="M75.6674 20.2702V15.9459H78.4932V12.1621H74.2543V20.2702H75.6674ZM75.6674 14.7297V13.3783H77.2211V14.7297H75.6674Z" fill="black" fill-opacity="0.75"/>
<path d="M92.904 20.2701H91.4914V12.1621H92.904V17.5675L95.7297 12.1621H97.1429V20.2701H95.7297V14.8648L92.904 20.2701Z" fill="black" fill-opacity="0.75"/>
</g>
<defs>
<clipPath id="clip0_74_118">
<rect width="100" height="50" fill="white"/>
</clipPath>
</defs>
</svg>
